<svg xmlns="http://www.w3.org/2000/svg" version="1.1" xmlns:xlink="http://www.w3.org/1999/xlink" xmlns:svgjs="http://svgjs.dev/svgjs" width="100%" height="100%" viewBox="0 0 1000 600"><rect width="1000" height="600" x="0" y="0" fill="#9a4ae4"/><g><circle r="166.66666666666666" cx="380.3462473551432" cy="402.56845952869946" fill="#532a75" transform="matrix(0.5849881417076646,0,0,0.5849881417076646,0,64.50223639428071)"/><path d="M333.4676639332443 477.5684536487193L300.592136563818 477.5684536487193L300.592136563818 327.56845760556996Q301.3124592493882 327.56845760556996 305.0005113995079 327.6260834204156Q308.6597506422048 327.68370923526123 313.96132560800186 327.6260834204156Q319.2629005737989 327.56845760556996 324.9678562435153 327.6260834204156Q330.6728119132317 327.68370923526123 335.42694163799536 327.7989608649525L335.42694163799536 327.7989608649525Q363.0297069490474 328.2023415688718 380.20219977304225 336.7597750734464Q397.3458796896142 345.317208578021 405.38468086057827 361.5965012719087Q413.4234820315423 377.8757939657964 413.4234820315423 401.6464425896147L413.4234820315423 401.6464425896147Q413.4234820315423 426.54079460292263 404.77960980469925 443.45397126011216Q396.1069246704334 460.33833500987885 378.415799512828 468.9533943292991Q360.7534872626454 477.5684536487193 333.4676639332443 477.5684536487193L333.4676639332443 477.5684536487193ZM320.30016524102007 344.0782535588402L320.30016524102007 461.0874706028719L333.4676639332443 461.0874706028719Q352.023176313534 461.0874706028719 365.42117826514067 455.3248891183099Q378.79036730932455 449.5623076337479 385.9935941650271 436.59649929348336Q393.1968210207296 423.6306909532188 393.1968210207296 401.96338457126564L393.1968210207296 401.96338457126564Q393.1968210207296 380.26726528188965 386.19528451698676 367.618398923276Q379.19374801324386 354.96953256466236 366.0262493210197 349.5238930617513Q352.85875062879546 344.0782535588402 334.30323824850575 344.0782535588402L334.30323824850575 344.0782535588402L320.30016524102007 344.0782535588402ZM459.58175972288404 477.5684536487193L441.02624734259433 477.5684536487193L441.02624734259433 370.32681222102013L459.58175972288404 370.32681222102013L459.58175972288404 477.5684536487193ZM460.1003920564946 347.593428264423L440.50761500898375 347.593428264423L440.50761500898375 327.68370923526123L460.1003920564946 327.68370923526123L460.1003920564946 347.593428264423Z " fill="#d2302c" transform="matrix(0.5849881417076646,0,0,0.5849881417076646,0,64.50223639428071)"/><path d="M662.7721627873043 475.51694897851985L630.3462640707689 475.51694897851985L630.3462640707689 327.5684575514533Q631.0567351206494 327.5684575514533 634.6943468960362 327.6252952354438Q638.303539829428 327.68213291943414 643.5326067565468 327.6252952354438Q648.7616736836655 327.5684575514533 654.3886043987172 327.6252952354438Q660.0155351137689 327.68213291943414 664.7046440429787 327.795808287415L664.7046440429787 327.795808287415Q691.9298946743904 328.193672075348 708.867524503536 336.6340681479255Q725.7767354906863 345.0744642205031 733.7055924073501 361.1311099477971Q741.6344493240138 377.18775567509107 741.6344493240138 400.63330032113987L741.6344493240138 400.63330032113987Q741.6344493240138 425.18717980500185 733.1087967254506 441.86904005619044Q724.5547252848922 458.52248146538386 707.1055562998329 467.01971522195186Q689.6848061567688 475.51694897851985 662.7721627873043 475.51694897851985L662.7721627873043 475.51694897851985ZM649.784751995493 343.852454014709L649.784751995493 459.26137135725935L662.7721627873043 459.26137135725935Q681.07389703222 459.26137135725935 694.2886585599929 453.57760295821726Q707.4750012457707 447.8938345591751 714.5797117445734 435.10535566133035Q721.6844222433759 422.31687676348554 721.6844222433759 400.94590758308715L721.6844222433759 400.94590758308715Q721.6844222433759 379.5465195606936 714.7786436385397 367.0706479247961Q707.8728650337036 354.59477628889863 694.8854542418924 349.22361515180387Q681.8980434500811 343.852454014709 663.5963092051654 343.852454014709L663.5963092051654 343.852454014709L649.784751995493 343.852454014709ZM787.1614342003412 475.51694897851985L768.3481607995118 475.51694897851985L768.3481607995118 369.7420190723459L786.3657066244754 369.7420190723459L786.3657066244754 390.0899099409167Q789.0086589300299 382.53049797019065 793.8114432272205 377.5572006210288Q798.6426463664063 372.583903271867 804.809535079367 370.1398828602789Q811.0048426343229 367.6958624486908 817.6548516612022 367.6958624486908L817.6548516612022 367.6958624486908Q820.0136155468047 367.6958624486908 822.2587040644264 367.9800508686428Q824.5037925820479 368.29265813059015 825.7542216298373 369.0031291804704L825.7542216298373 369.0031291804704L825.7542216298373 387.33328226738126Q824.2196041620958 386.622811217501 821.8040025925029 386.3670416395441Q819.3884010229101 386.1112720615872 817.768527029183 386.1112720615872L817.768527029183 386.1112720615872Q811.431125264251 385.68498943165906 805.889451075185 386.87858079545794Q800.3761957281142 388.0437533172615 796.1702071128229 390.9140563587778Q791.992637339527 393.7843594002941 789.5770357699341 398.4166306455134Q787.1614342003412 403.07732073272797 787.1614342003412 409.72732975960724L787.1614342003412 409.72732975960724L787.1614342003412 475.51694897851985ZM887.2241768654778 477.56310560217497L887.2241768654778 477.56310560217497Q878.9542938448716 477.44943023419415 871.6222326101072 475.1475040325821Q864.318590217338 472.84557783097006 858.6916595022864 468.3554007957268Q853.0647287872347 463.8652237604835 849.8249807997806 457.15837704961376Q846.6136516543219 450.4515303387441 846.6136516543219 441.55643279424316L846.6136516543219 441.55643279424316L846.6136516543219 369.7420190723459L865.5406004231321 369.7420190723459L865.5406004231321 439.5955326965736Q865.5406004231321 449.9399911828303 871.9348398720545 456.3910683157431Q878.3290793209769 462.8421454486559 891.2312335868025 462.8421454486559L891.2312335868025 462.8421454486559Q902.8829588048388 462.8421454486559 909.9876693036415 456.7320944196856Q917.0923798024442 450.65046223271054 917.0923798024442 438.57245438474604L917.0923798024442 438.57245438474604L917.0923798024442 369.7420190723459L935.9340720452687 369.7420190723459L935.9340720452687 475.51694897851985L920.9005046298024 475.51694897851985L918.939604532133 455.2543146359347Q917.0071232764585 463.24000923658883 912.346433189244 468.15646890176026Q907.6857431020295 473.0729285669317 901.2062471271215 475.3748547685438Q894.6983323102182 477.67678097015585 887.2241768654778 477.56310560217497ZM987.2869195306143 475.51694897851985L968.473646129785 475.51694897851985L968.473646129785 369.7420190723459L986.6617050067198 369.7420190723459L986.6617050067198 385.0881937497596Q991.0666255159774 378.125577460933 998.7397128546843 372.89651053381425Q1006.4128001933911 367.6958624486908 1018.6897399353222 367.6958624486908L1018.6897399353222 367.6958624486908Q1024.4303460183548 367.6958624486908 1030.398302837349 369.6283437043651Q1036.3946784983384 371.5608249600394 1041.3963946894955 375.4542063133832Q1046.4265297226477 379.34758766672707 1049.183157396183 384.9745183817788L1049.183157396183 384.9745183817788Q1054.0996170613546 377.18775567509107 1062.4831754499417 372.4418090618909Q1070.866733838529 367.6958624486908 1081.410124218752 367.6958624486908L1081.410124218752 367.6958624486908Q1086.9233795658229 367.6958624486908 1092.9765929108025 369.37257412640815Q1099.0013874137874 371.0492858041256 1104.1736166569158 375.3121121034072Q1109.3458459000442 379.5465195606936 1112.6140127294932 387.0775126894244Q1115.8821795589424 394.58008697616 1115.8821795589424 406.3454875621772L1115.8821795589424 406.3454875621772L1115.8821795589424 475.51694897851985L1096.8699742641465 475.51694897851985L1096.8699742641465 408.19271229186586Q1096.8699742641465 398.5871436974847 1093.800739328664 393.3012390863755Q1090.731504393181 388.0437533172615 1085.7582070440192 385.8839213256255Q1080.7849096948573 383.75250817598476 1075.1579789798056 383.75250817598476L1075.1579789798056 383.75250817598476Q1070.2699381566295 383.75250817598476 1064.7282639675634 385.68498943165906Q1059.2150086204924 387.6458895293286 1055.3216272671486 392.2497419325527Q1051.4282459138049 396.85359433577685 1051.4282459138049 404.8108700944358L1051.4282459138049 404.8108700944358L1051.4282459138049 475.51694897851985L1032.6149725129753 475.51694897851985L1032.6149725129753 402.679456944795Q1032.6149725129753 396.4273117058487 1029.2899679995357 392.2497419325527Q1025.9649634860962 388.0437533172615 1020.9916661369342 385.8839213256255Q1016.0467876297676 383.75250817598476 1011.1303279645962 383.75250817598476L1011.1303279645962 383.75250817598476Q1005.702329143511 383.75250817598476 1000.2174926384353 385.8839213256255Q994.7610749753549 388.0437533172615 991.0097878319871 392.7044434044761Q987.2869195306143 397.36513349169064 987.2869195306143 404.8108700944358L987.2869195306143 404.8108700944358L987.2869195306143 475.51694897851985ZM1164.279467476786 475.51694897851985L1145.4661940759565 475.51694897851985L1145.4661940759565 369.7420190723459L1163.6542529528915 369.7420190723459L1163.6542529528915 385.0881937497596Q1168.0591734621494 378.125577460933 1175.732260800856 372.89651053381425Q1183.4053481395629 367.6958624486908 1195.6822878814937 367.6958624486908L1195.6822878814937 367.6958624486908Q1201.4228939645263 367.6958624486908 1207.3908507835208 369.6283437043651Q1213.3872264445101 371.5608249600394 1218.3889426356673 375.4542063133832Q1223.4190776688195 379.34758766672707 1226.1757053423548 384.9745183817788L1226.1757053423548 384.9745183817788Q1231.0921650075265 377.18775567509107 1239.4757233961134 372.4418090618909Q1247.8592817847004 367.6958624486908 1258.4026721649236 367.6958624486908L1258.4026721649236 367.6958624486908Q1263.9159275119946 367.6958624486908 1269.9691408569745 369.37257412640815Q1275.993935359959 371.0492858041256 1281.1661646030873 375.3121121034072Q1286.338393846216 379.5465195606936 1289.606560675665 387.0775126894244Q1292.8747275051144 394.58008697616 1292.8747275051144 406.3454875621772L1292.8747275051144 406.3454875621772L1292.8747275051144 475.51694897851985L1273.8625222103183 475.51694897851985L1273.8625222103183 408.19271229186586Q1273.8625222103183 398.5871436974847 1270.7932872748356 393.3012390863755Q1267.7240523393527 388.0437533172615 1262.750754990191 385.8839213256255Q1257.777457641029 383.75250817598476 1252.1505269259776 383.75250817598476L1252.1505269259776 383.75250817598476Q1247.2624861028014 383.75250817598476 1241.7208119137351 385.68498943165906Q1236.2075565666642 387.6458895293286 1232.3141752133204 392.2497419325527Q1228.4207938599766 396.85359433577685 1228.4207938599766 404.8108700944358L1228.4207938599766 404.8108700944358L1228.4207938599766 475.51694897851985L1209.607520459147 475.51694897851985L1209.607520459147 402.679456944795Q1209.607520459147 396.4273117058487 1206.2825159457075 392.2497419325527Q1202.957511432268 388.0437533172615 1197.984214083106 385.8839213256255Q1193.0393355759393 383.75250817598476 1188.122875910768 383.75250817598476L1188.122875910768 383.75250817598476Q1182.6948770896827 383.75250817598476 1177.2100405846072 385.8839213256255Q1171.7536229215266 388.0437533172615 1168.0023357781588 392.7044434044761Q1164.279467476786 397.36513349169064 1164.279467476786 404.8108700944358L1164.279467476786 404.8108700944358L1164.279467476786 475.51694897851985ZM1367.1615804805947 477.56310560217497L1367.1615804805947 477.56310560217497Q1352.4122014850802 477.56310560217497 1341.158340054977 471.11202846926216Q1329.9044786248737 464.66095133634934 1323.5670768599418 452.6113623303801Q1317.2296750950097 440.5333544824156 1317.2296750950097 423.65256233726046L1317.2296750950097 423.65256233726046Q1317.2296750950097 406.9707020860718 1322.9702811780423 394.3811550821935Q1328.6824684190797 381.7916080783152 1339.5953037452405 374.74373526350297Q1350.479720229406 367.6958624486908 1365.82589490682 367.6958624486908L1365.82589490682 367.6958624486908Q1380.7742057963007 367.6958624486908 1391.090245440562 374.11852073960836Q1401.4347039268189 380.5695978725212 1406.8058650639136 392.2781607745479Q1412.1770262010084 404.0151425185699 1412.1770262010084 420.0717882458639L1412.1770262010084 420.0717882458639L1412.1770262010084 427.0344045346905L1336.3555557577865 427.0344045346905Q1336.3555557577865 437.03783691700465 1339.6805602712263 445.1940445696301Q1343.0055647846657 453.32183338026033 1349.7692491795258 458.12461767745094Q1356.5045147323908 462.92740197464155 1366.8489732186474 462.92740197464155L1366.8489732186474 462.92740197464155Q1376.9660809689426 462.92740197464155 1384.2981422037067 458.2382930454318Q1391.601784596476 453.5207652742268 1393.6479412201313 444.6256677297259L1393.6479412201313 444.6256677297259L1411.4665551511282 444.6256677297259Q1409.6193304214394 455.3679900039155 1402.9124837105699 462.7284700806751Q1396.2056369997001 470.0889501574346 1386.8558379832757 473.84023730080236Q1377.4776201248562 477.56310560217497 1367.1615804805947 477.56310560217497ZM1336.4692311257672 414.24592563684575L1336.4692311257672 414.24592563684575L1393.9605484820784 414.24592563684575Q1393.9605484820784 405.12347735638315 1390.8913135465957 397.819834963614Q1387.822078611113 390.4877737288496 1381.5415145301713 386.25336627156327Q1375.2325316072347 382.0189588142769 1365.712219538839 382.0189588142769L1365.712219538839 382.0189588142769Q1355.7940436825104 382.0189588142769 1349.2577100236122 386.76490542747706Q1342.6929575227184 391.5108520406772 1339.5384660612501 398.9281698014272Q1336.3555557577865 406.3454875621772 1336.4692311257672 414.24592563684575ZM1457.1924719214219 475.51694897851985L1438.3507796785973 475.51694897851985L1438.3507796785973 369.7420190723459L1456.368325503561 369.7420190723459L1456.368325503561 390.0899099409167Q1459.039696651111 382.53049797019065 1463.8424809483015 377.5572006210288Q1468.645265245492 372.583903271867 1474.840572800448 370.1398828602789Q1481.0358803554038 367.6958624486908 1487.685889382283 367.6958624486908L1487.685889382283 367.6958624486908Q1490.0162344258904 367.6958624486908 1492.2897417855072 367.9800508686428Q1494.534830303129 368.29265813059015 1495.7568405089228 369.0031291804704L1495.7568405089228 369.0031291804704L1495.7568405089228 387.33328226738126Q1494.2222230411815 386.622811217501 1491.8066214715884 386.3670416395441Q1489.419438743991 386.1112720615872 1487.7711459082686 386.1112720615872L1487.7711459082686 386.1112720615872Q1481.4337441433368 385.68498943165906 1475.920488796266 386.87858079545794Q1470.3788146072 388.0437533172615 1466.201244833904 390.9140563587778Q1461.9952562186124 393.7843594002941 1459.5796546490199 398.4166306455134Q1457.1924719214219 403.07732073272797 1457.1924719214219 409.72732975960724L1457.1924719214219 409.72732975960724L1457.1924719214219 475.51694897851985Z " fill="#ff2623" transform="matrix(0.5849881417076646,0,0,0.5849881417076646,0,64.50223639428071)"/></g></svg>